<svg xmlns="http://www.w3.org/2000/svg" viewBox="0 0 800 585">
    <path fill="#6DB33F"
          d="M402 29c2.735 1.187 2.735 1.187 5.535 2.86l3.168 1.863 3.36 2.027q1.755 1.04 3.511 2.074 3.55 2.093 7.09 4.201c4.582 2.713 9.205 5.348 13.836 7.975 11.08 6.317 22.125 12.697 33.17 19.077Q479.833 73.79 488 78.5l29.254 16.877q8.09 4.666 16.176 9.338a7326 7326 0 0 0 35.475 20.362c9.04 5.157 18.04 10.378 27.022 15.636 7.622 4.456 15.279 8.85 22.948 13.225l3.52 2.009 1.761 1.005c7.682 4.384 15.362 8.77 23.032 13.173l3.2 1.828c6.03 3.467 11.885 7.1 17.612 11.047-1.128 3.384-1.463 3.563-4.41 5.207l-2.212 1.255-2.44 1.35q-2.622 1.484-5.243 2.97l-2.815 1.585c-4.883 2.769-9.723 5.61-14.567 8.446l-6.157 3.593-3.097 1.809q-4.45 2.597-8.903 5.191A19497 19497 0 0 0 571 242l-14.812 8.688-1.836 1.076q-13.617 7.982-27.256 15.928c-7.873 4.59-15.735 9.197-23.596 13.808A10822 10822 0 0 1 477 297a11574 11574 0 0 0-26.187 15.313l-1.837 1.076a24496 24496 0 0 0-18.513 10.863l-9.15 5.373-1.822 1.07c-8.556 5.02-17.14 9.99-25.741 14.93a1319 1319 0 0 0-25.125 14.813c-10.026 6.057-20.149 11.922-30.346 17.685-5.63 3.186-11.217 6.421-16.728 9.81l-3.04 1.858a417 417 0 0 0-5.586 3.489c-5.978 3.658-5.978 3.658-9.91 3.915-4.595-1.821-8.687-4.297-12.89-6.882l-5.937-3.579-3.094-1.873c-4.96-2.984-9.964-5.89-14.969-8.798l-6.055-3.528-3.038-1.769Q249.514 366.386 242 362l-3.004-1.752a19640 19640 0 0 1-14.926-8.713 5588 5588 0 0 0-31.195-18.098 2304 2304 0 0 1-26.558-15.53c-6.97-4.13-13.98-8.183-21.005-12.22A2077 2077 0 0 1 118.5 290c-13.097-7.789-26.287-15.41-39.5-23-28.26-16.242-28.26-16.242-41-24 .121-1.758.121-1.758 1-4a55 55 0 0 1 6.063-3.875l1.997-1.154a791 791 0 0 1 4.475-2.564c3.558-2.031 7.091-4.105 10.628-6.174q4.601-2.69 9.208-5.37c10.031-5.842 20.041-11.72 30.054-17.594q6.456-3.786 12.915-7.566A6754 6754 0 0 0 149.5 174c19.082-11.325 38.24-22.52 57.41-33.696 17.334-10.108 34.648-20.249 51.903-30.492a4260 4260 0 0 1 30.972-18.19 8756 8756 0 0 0 22.371-13.077 6092 6092 0 0 0 30.015-17.727q12.573-7.458 25.224-14.78c4.82-2.797 9.603-5.636 14.335-8.577l2.759-1.702a434 434 0 0 0 5.095-3.205c.758-.47 1.517-.938 2.299-1.421l1.98-1.254c2.91-1.197 5.011-1.195 8.137-.879m-18.793 51.969-2.158 1.23-2.236 1.301-2.272 1.3Q373.767 86.394 371 88v2l2.19 1.247C385.824 98.444 398.451 105.652 411 113c8.74 5.117 17.515 10.17 26.313 15.188 9.29 5.298 18.565 10.62 27.816 15.988 5.805 3.368 11.62 6.72 17.433 10.074l3.333 1.922 6.742 3.889q9.799 5.651 19.596 11.304l16.513 9.526a1055.984 1055.984 0 0 0 9.97 5.715c5.02 2.853 9.906 5.761 14.647 9.062 7.226 5.482 7.226 5.482 15.732 7.05 4.68-1.655 8.2-4.485 11.905-7.718q1.99-1.513 4-3c-6.335-4.369-12.837-8.266-19.562-12-8.087-4.53-16.13-9.124-24.125-13.812a2581 2581 0 0 0-26.188-15.125 7418 7418 0 0 1-36.898-21.2q-4.894-2.824-9.79-5.644a5467 5467 0 0 1-31.312-18.156c-12.388-7.245-24.84-14.375-37.32-21.459q-2.544-1.452-5.058-2.95c-4.6-2.745-6.86-3.38-11.54-.685m-58.121 33.219-2.305 1.367-2.406 1.445-2.43 1.445A1805 1805 0 0 0 312 122c2.783 2.168 5.606 3.993 8.684 5.715l2.777 1.56 2.976 1.662 6.278 3.528 3.199 1.796c4.54 2.558 9.064 5.147 13.586 7.739a4074 4074 0 0 0 22 12.5 5662 5662 0 0 1 29.576 16.827q3.978 2.276 7.959 4.55l3.546 2.03c3.002 1.717 6.009 3.427 9.026 5.118 5.573 3.134 11.03 6.34 16.319 9.944 8.005 5.931 8.005 5.931 17.37 7.792 6.24-1.971 11.294-5.99 15.704-10.761-10.287-6.585-20.939-12.488-31.605-18.43a1628 1628 0 0 1-16.707-9.445l-2.526-1.447-5.279-3.025a16321 16321 0 0 0-18.564-10.623 6543 6543 0 0 0-32.454-18.414q-7.684-4.336-15.365-8.679l-2.878-1.625-2.716-1.535-2.55-1.438a349 349 0 0 1-4.493-2.596c-4.746-2.79-6.085-3.357-10.777-.555m-61 33-2.305 1.367-2.406 1.445-2.43 1.445A1805 1805 0 0 0 251 155c2.508 2.818 5.3 4.457 8.574 6.3l3.425 1.94 1.82 1.023c3.19 1.792 6.373 3.6 9.556 5.405l1.959 1.109c5.984 3.392 11.922 6.863 17.853 10.348 9.087 5.327 18.25 10.5 27.454 15.623 8.222 4.588 16.36 9.308 24.48 14.072A1317 1317 0 0 0 366.5 222.5c8.023 4.51 15.994 9.1 23.938 13.75l5.988 3.488a864 864 0 0 1 10.43 6.18l4.269 2.52 1.88 1.163c2.806 1.633 4.726 2.402 7.995 2.368 3.62-1.17 6.691-2.872 9.875-4.906l1.797-1.092c1.483-.928 2.912-1.943 4.328-2.971v-2l-2.19-1.247q-5.156-2.937-10.31-5.878l-1.917-1.094a2521 2521 0 0 1-25.77-14.906c-9.087-5.327-18.25-10.5-27.454-15.623-8.222-4.588-16.36-9.308-24.48-14.072A1319 1319 0 0 0 324.5 176.5a1639 1639 0 0 1-23.75-13.625l-3.002-1.754a6185 6185 0 0 1-11.616-6.807 4280 4280 0 0 0-8.007-4.689l-2.415-1.426c-5.841-3.494-5.841-3.494-11.624-1.012"/>
    <path fill="#6DB33F"
          d="M75 371c2.663 1.37 5.27 2.777 7.875 4.25l2.388 1.339c8.063 4.547 16.021 9.27 23.98 13.997 5.82 3.456 11.66 6.879 17.507 10.289l3.002 1.75a5148 5148 0 0 0 22.373 12.938 2444 2444 0 0 1 26.345 15.387 5868 5868 0 0 0 24.637 14.514 3735 3735 0 0 0 26.33 15.286 2140 2140 0 0 1 23.375 13.625l2.629 1.556 10.302 6.102q5.733 3.396 11.473 6.779 1.874 1.105 3.745 2.214a474 474 0 0 0 8.736 5.068 106 106 0 0 1 6.371 3.98c3.043 1.897 5.421 3.178 8.932 3.926 5.003-1.278 8.998-3.92 13.25-6.75q1.845-1.151 3.698-2.287a509 509 0 0 0 7.488-4.708c5.07-3.232 10.288-6.2 15.502-9.192q2.94-1.716 5.878-3.438l3.02-1.77a28323 28323 0 0 0 15.689-9.207l3.697-2.17a3901 3901 0 0 1 29.461-17.095c6.8-3.916 13.569-7.88 20.317-11.883q5.498-3.255 11-6.5l3.399-2.006q4.452-2.623 8.917-5.224c1.71-.998 3.415-2.004 5.12-3.01l3.162-1.838 2.797-1.638c2.573-1.268 4.778-1.87 7.605-2.284l.623 1.554c4.15 10.275 8.395 20.081 14.377 29.446-4.171 4.698-8.838 7.43-14.312 10.438l-5.688 3.19-2.988 1.673c-4.973 2.805-9.898 5.69-14.824 8.574l-6.102 3.566-3.06 1.79q-5.887 3.44-11.779 6.871a13059 13059 0 0 0-31.61 18.49Q377.33 505.814 365 513q-11.578 6.747-23.138 13.524-3.76 2.205-7.526 4.401c-5.28 3.085-10.547 6.183-15.742 9.41l-2.368 1.455a227 227 0 0 0-4.13 2.607c-2.843 1.744-4.6 2.643-7.969 2.372-3.25-.8-5.573-1.892-8.451-3.585l-3.075-1.792-3.288-1.955-3.459-2.024c-3.626-2.125-7.24-4.267-10.854-6.413l-3.484-2.067a12099 12099 0 0 1-13.605-8.083c-8.126-4.826-16.324-9.509-24.567-14.132-7.354-4.134-14.624-8.398-21.876-12.71-7.018-4.167-14.078-8.255-21.155-12.32A2074 2074 0 0 1 163.5 466a2355 2355 0 0 0-29.941-17.496A3490 3490 0 0 1 112 436c-13.805-8.067-27.66-16.048-41.517-24.024l-7.07-4.072q-3.305-1.904-6.612-3.806A1013 1013 0 0 1 38 393c.716-3.78.716-3.78 3.273-5.754l3.102-1.808c.56-.33 1.12-.658 1.697-.996a569 569 0 0 1 3.786-2.196A425 425 0 0 0 56.949 378q2.556-1.533 5.114-3.062l2.487-1.52c.779-.46 1.558-.918 2.36-1.39l2.098-1.259c2.486-.96 3.525-.698 5.992.231M547 295c4.472 3.407 6.962 7.843 9 13v2l2.25-.5c7.18-.957 14.652-1.077 21.75.5l.688-2c2.07-4.732 4.645-9.333 8.312-13 7.557-1.15 14.509 2.356 20.918 6.129 1.394 1.121 1.394 1.121 3.082 3.871.243 3.723-.306 7.344-1.751 10.792-.817 2.202-1.268 3.852-1.249 6.208 1.779 3.244 4.248 5.556 6.938 8.063l2.017 2.083c4.184 4.097 4.184 4.097 9.861 4.85A351 351 0 0 0 635 335c3.138-.57 5.88-.737 9 0 2.515 2.256 3.683 4.926 5 8l1.223 2.77c1.58 3.916 2.714 7.382 3.027 11.605-1.956 4.108-5.346 5.542-9.25 7.625l-2.7.941c-2.8 2.506-2.79 3.483-3.21 7.137a147 147 0 0 0-.153 6.172l-.02 3.187c.24 6.344.24 6.344 3.704 11.497 3.19 1.821 3.19 1.821 6.559 2.953C651 398 651 398 652.414 399.895c2.16 7.758-3.8 16.615-7.414 23.105-1.552 1.552-3.037 1.17-5.187 1.188-3.988-.026-7.037-.9-10.813-2.188-3.937 0-5.826 1.547-8.55 4.16a345 345 0 0 0-3.763 3.902l-1.955 2.01A619 619 0 0 0 610 437l.656 2.195c3.6 12.5 3.6 12.5 1.278 16.762-2.65 2.8-5.718 3.949-9.246 5.293l-1.975.813c-4.024 1.579-7.398 2.465-11.713 1.937-3.272-3.116-5.173-6.185-7.148-10.219l-1.06-2.154L580 450l-3.727.035q-2.448.015-4.898.027l-2.45.026c-4.428.018-8.564-.192-12.925-1.088l-.687 2.5c-1.657 4.418-3.9 10.294-8.313 12.5-6.123 0-10.975-1.553-16.5-4.125l-1.89-.82c-1.766-.875-1.766-.875-4.61-3.055-1.327-4.548-1.127-7.826.438-12.25.99-2.862 1.562-4.692 1.562-7.75-1.563-1.667-1.563-1.667-3.625-3.25-2.92-2.397-5.164-4.696-7.375-7.75-2.023-2.5-2.023-2.5-5.043-3.25-3.115.363-5.99 1.261-8.957 2.25-3.084.449-5.926.565-9 0-2.312-2.375-2.312-2.375-4-6l-1.121-2.344c-2.417-5.418-3.696-9.735-2.879-15.656 2.737-4.106 7.51-6.173 12-8h2v-25l-6-2c-3.743-1.572-6.509-2.952-8.3-6.773-1.215-5.604 1.139-10.086 3.3-15.227l1.07-2.555c1.127-2.214 2.081-3.785 3.93-5.445 6.443-1.965 13.841 1.066 20 3l.688-1.676c1.696-3.004 3.856-5.095 6.312-7.512l2.688-2.667C524 324 524 324 526 323l-.402-1.687c-3.121-13.487-3.121-13.487-2.016-17.344 2.093-2.906 4.6-3.745 7.856-5.156 1.153-.51 2.307-1.019 3.496-1.543 4.276-1.77 7.423-2.827 12.066-2.27m5.043 64.16c-5.542 4.991-9.462 11.635-10.293 19.078-.388 7.79 1.953 13.875 5.875 20.512 7.377 6.989 14.94 9.676 24.941 9.598 7.532-.763 13.634-4.56 18.434-10.348 5.2-6.984 7.027-13.378 6-22-2.401-8.826-6.716-15.318-14.703-19.957-10.481-4.76-21.011-3.574-30.254 3.117"/>
    <path fill="#6DB33F"
          d="M75 296a113 113 0 0 1 5.086 2.703l3.035 1.701 3.254 1.846 3.389 1.91c8.008 4.532 15.95 9.17 23.857 13.874 7.05 4.194 14.143 8.312 21.254 12.404 8.39 4.828 16.768 9.677 25.125 14.562a4579 4579 0 0 0 25 14.5 5130 5130 0 0 1 27.96 16.23A4272 4272 0 0 0 235 388.5c13.442 7.744 26.842 15.56 40.233 23.39q3.27 1.913 6.542 3.825l6.122 3.58a833 833 0 0 0 5.52 3.198q2.562 1.493 5.06 3.089c4.383 2.804 4.383 2.804 9.406 3.121 4.714-2.575 9.377-5.203 13.992-7.953l6.512-3.84 3.345-1.98c4.972-2.936 9.964-5.838 14.955-8.743q13.32-7.768 26.625-15.562l1.845-1.08c8.862-5.194 17.701-10.423 26.53-15.67a2284 2284 0 0 1 29.705-17.339c5.509-3.162 11.001-6.35 16.467-9.587l3.347-1.976q3.165-1.87 6.32-3.759l2.845-1.679 2.498-1.488C465 337 465 337 468 337l-.812 3.625-.551 2.523q-.654 2.921-1.367 5.829c-1.3 5.524-2.313 10.716-2.59 16.382l-.162 2.824a134 134 0 0 0-.168 5.533c-.195 3.644-.365 6.263-2.966 8.96-2.385 1.628-4.832 2.973-7.384 4.324a1568 1568 0 0 0-6.379 3.813c-2.39 1.402-4.787 2.794-7.183 4.187l-3.87 2.259a9409 9409 0 0 1-9.74 5.676q-4.11 2.395-8.219 4.795-10.25 5.983-20.506 11.958a14963 14963 0 0 0-37.451 21.896c-6.429 3.772-12.86 7.54-19.3 11.291l-3.165 1.844q-3.015 1.754-6.034 3.502c-4.299 2.495-8.568 5.014-12.762 7.681l-2.087 1.313a173 173 0 0 0-3.667 2.387c-2.678 1.691-4.261 2.427-7.455 2.18-3.481-.856-6.023-2.122-9.12-3.923l-3.426-1.975q-1.818-1.066-3.636-2.134-1.891-1.098-3.784-2.193A2193 2193 0 0 1 273 455l-3.072-1.804q-6.766-3.98-13.514-7.989c-8.765-5.202-17.582-10.316-26.39-15.445a7969 7969 0 0 1-8.961-5.23 5202 5202 0 0 0-30.875-17.907 2048 2048 0 0 1-26.563-15.562 1674 1674 0 0 0-28.25-16.438l-1.81-1.03-1.79-1.019a1674 1674 0 0 1-24.298-14.113c-5.465-3.228-10.94-6.439-16.415-9.65l-1.873-1.1a2585 2585 0 0 0-22.216-12.911 3161 3161 0 0 0-8.234-4.717A880 880 0 0 1 50 325l-3.183-1.843-3.06-1.837-2.768-1.64L39 318v-4c2.176-1.754 2.176-1.754 5.313-3.562.564-.33 1.129-.658 1.71-.996q1.905-1.107 3.819-2.196c2.392-1.381 4.751-2.81 7.111-4.246q2.554-1.533 5.11-3.062l2.487-1.52c.779-.46 1.558-.918 2.36-1.39l2.098-1.259c2.527-.975 3.482-.737 5.992.231M707.813 263.625c4.327.51 5.469 2.034 8.187 5.375.723 3.34.723 3.34 1.063 6.938.93 5.379.93 5.379 4.613 9.167 3.147 1.551 3.147 1.551 6.316 2.684C731 289 731 289 733.594 291.16c2.216 2.035 2.216 2.035 4.758 2.047l2.273-.394 2.29-.356C745.176 292 745.176 292 748 291c6.28-.57 6.28-.57 9.047 1.621 2.29 2.79 3.467 5.389 4.765 8.754l1.333 3.336c.943 3.627.98 5.724-.145 9.289-1.637 1.54-1.637 1.54-3.687 2.625q-2.16 1.182-4.313 2.375l-3.16 1.688c-3.707 3.018-3.9 5.02-4.59 9.687-1.159 7.414-1.159 7.414-2.574 10.695-1.032 3.064-1.032 3.064.914 6.149a114 114 0 0 0 2.347 3.281c2.333 3.173 4.045 5.531 4.122 9.61-1.324 3.614-3 5.174-5.934 7.64l-2.68 2.297c-4.843 3.869-4.843 3.869-8.312 4.355-4.057-.52-5.401-1.97-8.258-4.84-3.798-4.024-3.798-4.024-8.875-5.562l-1.777.45c-2.622.649-5.025.466-7.706.384-6.462-.14-6.462-.14-12.224 2.403a48 48 0 0 0-5.578 6.633c-1.188 1.638-1.188 1.638-3.715 4.13-5.199.124-8.568-1.582-12.812-4.437l-2.833-1.872C669 370 669 370 667 368c-.909-6.1 1.214-10.019 4.102-15.352 1.168-2.62 1.168-2.62.171-5.21L670 345l-1-2.21a1292 1292 0 0 0-2.098-4.517C666 336 666 336 665.562 332.25c-2.03-4.225-3.684-4.396-8-6l-3.496-1.11c-2.924-1.087-4.32-1.607-6.066-4.14-1.586-4.422-.515-8.243.688-12.625l.49-2.023c.75-2.809 1.572-5.04 3.4-7.317 4.44-1.897 9.219-1.103 13.955-.83 2.217.075 4.273.127 6.467-.205 1.977-1.866 1.977-1.866 3-4h2v-2c1.934-1.437 1.934-1.437 4.438-3 3.372-1.953 3.372-1.953 5.562-5 .239-3.245.383-6.488.523-9.738.51-3.49 1.394-5.445 3.477-8.262 4.632-2.316 10.721-1.874 15.813-2.375m-13.563 47.563c-3.642 4.552-5.65 9.026-5.187 14.937 1.26 5.212 3.421 8.27 7.062 12.125 4.65 2.83 9.631 4.196 15.09 3.445 5.415-1.684 8.719-5.02 11.785-9.695 2.495-4.99 2.432-9.69 1-15-2.266-4.541-5.225-8.09-10-10-7.888-1.72-13.271-.966-19.75 4.188M614.125 230.813C617 232 617 232 618.938 235.063c2.002 2.72 3.077 2.94 6.5 3.542 7.144.466 7.144.466 13.664-1.964 1.343-1.51 2.624-3.073 3.898-4.641 2.875-.812 2.875-.812 6 0 3.141 1.966 5.709 4.077 8 7 .233 3.8-.721 5.532-2.652 8.773-2.088 4.998-.612 8.265 1.062 13.227 2.145 4.046 4.468 5.373 8.664 6.973C666 269 666 269 666.887 270.797c.148 2.882-.63 4.746-1.762 7.39l-1.117 2.668C663 283 663 283 662 284a381 381 0 0 1-6.062-.312c-6.04-.087-9.046.926-13.45 5C641 290 641 290 639 290l-.113 1.828-.2 2.422-.175 2.39c-.626 2.888-1.383 4.305-3.512 6.36-4.65.966-9.39.903-13.562-1.437-1.428-2.545-1.744-4.108-2.188-6.938-.723-4.097-1.969-5.666-5.312-8.125A184 184 0 0 0 610 284l-1-1c-3.304.091-6.599.263-9.898.453C596 283 596 283 594.148 280.77c-1.631-3.935-2.548-7.491-2.148-11.77 2.894-3.404 5.61-4.498 10-5l.367-1.793.508-2.394.531-2.512C604 255 604 255 605.375 252.5c.793-3.173.041-4.11-1.375-7-2.035-4.194-2.035-4.194-1.687-7.25 3.137-4.183 6.472-7.117 11.812-7.437m6.063 26.25c-2.902 3.895-3.613 7.112-3.188 11.937 1.756 3.792 3.35 5.542 6.75 7.938 4.084 1.335 7.17 1.464 11.25.062 3.14-2.605 5.691-4.796 6.273-8.953.18-4.081.187-7.135-2.336-10.485-6.467-5.641-12.014-5.439-18.75-.5"/>
</svg>